<svg width="714" height="595" viewBox="0 0 714 595" fill="none" xmlns="http://www.w3.org/2000/svg">
<g clip-path="url(#clip0_134_14050)">
<g clip-path="url(#clip1_134_14050)">
<path d="M92.8668 418.42C94.1496 398.328 91.95 378.393 95.5292 358.145C101.077 326.837 110.392 296.104 109.385 263.906C108.638 240.381 114.497 215.948 114.252 192.296C113.93 165.312 136.152 144.219 164.066 122.145C205.436 89.4289 243.923 82.7541 291.467 79.3208C332.857 76.3318 374.207 70.9021 409.732 80.5529C439.77 88.7472 463.254 105.384 482.038 129.868C509.909 166.184 543.709 197.184 577.041 228.685C602.33 252.544 624.939 279.371 633.137 315.098C638.468 338.272 634.088 360.164 621.039 380.938C588.113 433.415 541.523 471.483 485.687 496.954C459.151 509.044 429.223 511.554 399.78 511.524C357.325 511.472 314.696 510.36 272.26 515.903C248.01 519.1 223.644 523.43 199.336 527.194C152.032 534.475 127.963 517.561 108.592 477.317C99.9461 459.351 97.4379 439.41 93.2011 420.033" fill="#E1F0FF"/>
<path d="M130.71 370.573C141.881 332.159 163.451 297.517 177.835 260.389C186.103 239.118 193.737 217.369 205.189 197.785C222.271 168.519 250.116 149.951 283.025 144.706C343.505 134.957 402.661 131.875 451.091 175.666C487.745 208.772 526.511 239.602 556.936 278.724C569.999 295.538 580.751 313.752 583.84 335.803C588.499 369.375 574.307 397.624 550.35 420.637C511.999 457.489 464.904 476.65 413.337 478.343C373.52 479.628 334.539 471.712 295.953 464.549C260.95 457.984 226.534 449.064 191.784 441.526C176.538 438.192 162.33 432.404 149.632 424.457C131.11 412.878 130.796 392.459 130.865 372.546" fill="#DAEAFF"/>
<path d="M142.791 311.888C158.658 276.843 184.186 246.887 203.024 213.529C213.842 194.422 224.103 174.769 237.81 157.727C258.264 132.256 287.838 118.536 320.633 118.251C380.915 117.623 439.044 123.165 480.647 171.888C512.138 208.727 545.985 243.698 570.62 285.384C581.195 303.297 589.334 322.216 589.498 343.696C589.706 376.391 572.203 401.306 545.849 419.825C503.659 449.483 455.221 461.01 404.678 455.23C365.655 450.746 328.636 437.604 291.905 425.238C258.594 413.955 226.16 400.511 193.222 388.335C178.774 382.968 165.657 375.409 154.292 366.007C137.713 352.304 140.046 332.78 142.687 313.793" stroke="black" stroke-width="3" stroke-miterlimit="10" stroke-linecap="round" stroke-linejoin="round" stroke-dasharray="8 20"/>
<path d="M105.94 404.991C107.223 384.899 105.023 364.965 108.602 344.717C114.151 313.408 123.465 282.676 122.458 250.477C121.711 226.952 127.571 202.519 127.325 178.867C127.003 151.884 149.225 130.791 177.139 108.716C218.51 76.0002 256.997 69.3254 304.54 65.8921C345.931 62.9031 387.28 57.4734 422.805 67.1242C452.843 75.3185 476.327 91.9555 495.111 116.44C522.983 152.755 556.782 183.756 590.114 215.256C615.403 239.115 638.012 265.942 646.21 301.67C651.541 324.843 647.161 346.736 634.112 367.509C601.186 419.986 554.596 458.054 498.76 483.525C472.224 495.615 442.297 498.125 412.853 498.096C370.399 498.043 327.769 496.932 285.333 502.474C261.083 505.671 236.717 510.001 212.41 513.765C165.105 521.046 141.036 504.133 121.665 463.888C113.019 445.922 110.511 425.981 106.274 406.604" stroke="black" stroke-width="3" stroke-miterlimit="10" stroke-linecap="round" stroke-linejoin="round" stroke-dasharray="8 20"/>
<path d="M406.97 286.391C410.158 307.435 399.616 323.741 387.239 342.51C384.021 347.488 380.703 353.374 382.481 358.904C384.432 364.546 390.651 367.349 396.233 369.255C399.595 370.455 403.178 371.311 406.63 370.865C414.947 369.671 422.25 356.869 425.558 350.246C429.915 341.625 432.899 332.115 438.74 324.21C450.361 308.116 471.968 324.761 486.485 329.035C490.129 330.174 500.961 334.5 504.664 331.783C509.831 328.309 502.047 323.033 500.965 318.683C512.028 319.264 522.454 318.947 532.94 314.774C536.603 313.248 540.317 311.268 543.223 308.28C545.957 305.18 547.772 301.242 547.316 297.054C545.07 282.459 520.617 293.179 512.493 295.958C499.231 300.283 485.648 305.86 471.405 304.927C467.206 304.647 462.481 303.296 461.289 299.118C460.278 295.787 462.719 292.011 465.928 290.435C469.137 288.859 472.65 288.696 476.273 288.362C496.158 287.344 516.011 284.116 535.378 278.628C554.18 273.26 573.225 269.023 589.037 256.612C601.428 246.856 610.981 232.832 613.256 217.267C614.605 208.404 609.664 195.718 599.816 204.928C587.224 216.5 578.479 231.533 567.21 244.448C556.112 257.473 541.309 269.077 524.312 269.77C519.497 270.064 535.626 243.986 535.899 243.188C537.22 240.392 537.955 236.243 535.38 234.579C532.23 232.299 528.255 235.813 526.257 238.903C521.325 246.909 517.958 257.387 509.279 261.025C506.682 253.748 517.216 244.983 511.975 239.161C508.804 235.407 502.093 237.883 499.945 242.335C497.625 246.676 498.323 251.995 498.336 256.871C498.348 261.746 497.351 267.429 493.304 269.924C487.855 273.459 480.142 269.202 477.959 263.167C475.776 257.132 477.439 250.419 479.849 244.433C486.202 228.583 498.692 213.781 515.547 211.048C529.233 208.701 543.377 214.681 557.245 213.181C561.151 212.786 565.612 211.533 567.892 208.383C570.454 205.172 570.038 199.792 566.383 197.916C564.899 197.2 563.426 197.221 561.78 197.131C555.714 197.103 549.819 197.186 543.753 197.158C544.447 190.062 553.086 187.616 559.807 185.877C574.946 182.035 590.689 172.743 594.215 157.5C594.427 156.42 594.749 155.168 594.224 154.098C593.163 151.222 589.136 151.052 586.199 151.83C571.464 156.177 562.779 171.492 551.115 180.501C539.955 189.105 526.008 197.125 511.747 198.857C502.521 199.951 502.095 193.834 506.412 186.403C510.396 179.488 517.874 175.074 525.029 171.911C533.93 167.931 543.578 164.677 550.399 157.891C557.441 150.762 560.748 140.001 568.77 133.992C574.774 129.599 582.636 128.354 588.529 124.132C594.705 119.85 598.022 109.826 592.064 105.488C586.218 100.978 578.075 106.422 573.051 111.935C557.977 128.475 545.267 147.759 526.387 159.647C524.36 140.571 549.135 128.6 551.702 109.572C552.265 105.312 550.426 99.4991 545.894 99.7331C544.137 99.8145 542.735 100.855 541.332 101.895C532.866 108.591 529.217 119.13 526.072 129.265C522.977 138.946 516.278 146.297 510.84 154.707C498.746 173.416 488.539 193.345 479.988 214.101C473.635 229.951 468.03 246.527 456.296 258.654C454.117 260.896 450.746 263.098 448.172 261.433C446.627 260.434 446.202 258.456 446.121 256.7C445.421 247.243 451.534 238.539 456.921 230.583C462.196 222.799 466.593 212.986 469.416 204.102C472.289 194.765 463.475 188.823 468.386 179.343C472.471 171.519 478.676 165.309 484.821 158.816C495.091 147.446 504.554 135.068 512.705 122.084C517.415 114.421 531.858 85.3048 515.141 81.799C509.569 80.6304 503.948 84.0544 500.609 88.4667C497.159 93.0507 495.707 98.6835 494.196 104.034C491.111 114.452 487.683 124.648 483.801 134.793C481.069 142.032 474.254 161.233 463.078 156.685C453.669 152.793 455.842 133.997 455.334 126.124C454.594 117.858 452.238 107.574 444.112 106.214C436.612 105.016 430.882 112.75 428.543 119.756C423.381 135.646 425.73 153.47 434.941 167.456C437.547 171.331 440.718 175.085 441.971 179.546C443.396 184.118 442.682 189.74 438.635 192.235C436.423 188.128 430.78 185.94 426.38 187.476C421.869 189.183 418.994 194.383 419.965 198.904C421.3 205.121 427.812 208.601 432.073 213.303C438.637 220.467 439.812 231.448 438.019 240.998C436.861 247.307 433.614 254.212 427.346 256.001C423.168 257.194 418.615 255.954 415.122 253.452C404.935 246.623 401.507 232.726 403.147 220.4C404.677 208.247 410.244 197 414.044 185.098C417.906 173.479 420.101 160.296 415.18 149.084C414.594 147.731 413.837 146.268 412.575 145.209C408.788 142.031 402.814 144.496 400.322 148.726C397.831 152.957 398.186 158.054 398.198 162.929C398.396 176.929 396.776 190.728 393.623 204.265C392.716 208.302 389.841 213.502 385.743 212.312C383.865 211.829 382.703 209.861 381.996 207.943C376.48 194.642 382.449 179.762 383.665 165.458C383.855 162.905 383.814 159.957 382.198 157.939C378.623 153.681 371.579 156.672 368.24 161.084C363.569 167.556 362.785 176.297 363.858 184.049C364.749 190.953 367.729 197.26 369.014 203.931C371.269 215.124 367.513 210.018 359.803 214.039C351.699 218.292 358.918 223.689 364.371 228.431C383.717 245.562 403.012 259.009 406.97 286.391Z" fill="#2D9CDB"/>
<path d="M303.239 462.39C291.34 469.206 276.09 474.29 262.111 473.365C261.649 465.856 261.996 458.231 263.267 450.722C259.57 457.885 256.797 465.51 254.949 473.365C254.718 474.405 237.62 471.401 236.002 471.055C231.959 470.246 228.262 468.513 224.219 467.936C224.681 463.892 227.338 460.426 227.8 456.498C225.258 459.387 222.948 462.621 221.099 466.087C220.637 466.896 211.28 462.737 210.471 462.39C206.543 460.426 202.731 458.116 199.034 455.574C193.72 451.877 189.792 446.91 184.593 443.328C188.29 436.743 191.987 430.158 195.799 423.573C190.138 426.23 184.593 429.234 179.394 432.7C178.701 433.162 178.008 433.624 177.199 433.393C176.853 433.278 176.506 432.931 176.275 432.7C172.463 428.541 169.459 423.804 166.917 418.837C164.029 413.176 162.643 408.093 161.488 401.97C165.185 399.544 168.881 397.233 172.578 394.807C167.842 395.385 163.105 395.962 158.484 396.54C152.823 375.63 153.285 352.178 159.639 331.383C160.564 328.495 161.603 325.491 163.683 323.412C166.455 320.755 170.614 320.061 174.427 319.484C208.045 314.632 244.551 310.704 274.011 327.686C292.264 338.199 305.78 356.221 312.597 376.207C319.297 396.194 329.082 440.024 303.239 462.39Z" fill="#A7DFFF"/>
</g>
<path d="M174.622 202.004L484.91 202.004C489.63 202.004 493.634 205.469 494.311 210.14L518.486 376.74C519.318 382.47 514.874 387.605 509.085 387.605H199.459C194.753 387.605 190.756 384.16 190.062 379.505L165.226 212.905C164.37 207.164 168.818 202.004 174.622 202.004Z" fill="black" stroke="black" stroke-width="3"/>
<path d="M188.677 188.677L498.965 188.677C503.685 188.677 507.689 192.142 508.367 196.813L532.541 363.414C533.373 369.143 528.929 374.278 523.14 374.278H213.514C208.808 374.278 204.811 370.833 204.118 366.179L179.281 199.578C178.425 193.837 182.873 188.677 188.677 188.677Z" fill="white" stroke="black" stroke-width="3"/>
<path d="M245.28 327.954C244.024 320.059 250.124 312.912 258.118 312.912H354.947C361.338 312.912 366.782 317.557 367.786 323.869L384.493 428.869C385.749 436.764 379.649 443.912 371.654 443.912H274.825C268.434 443.912 262.991 439.266 261.987 432.954L245.28 327.954Z" fill="#2D9CDB" stroke="black" stroke-width="3"/>
<path d="M260.829 338.647C259.572 330.752 265.673 323.604 273.667 323.604H370.496C376.887 323.604 382.33 328.25 383.335 334.562L400.042 439.562C401.298 447.457 395.198 454.604 387.203 454.604H290.374C283.983 454.604 278.54 449.959 277.536 443.647L260.829 338.647Z" fill="white" stroke="black" stroke-width="3"/>
<path d="M283.705 357.918H366.289" stroke="black" stroke-width="3"/>
<path d="M296.208 419.64H378.792" stroke="black" stroke-width="3"/>
<path d="M287.226 373.548H369.81" stroke="black" stroke-width="3"/>
<path d="M299.728 435.269H382.311" stroke="black" stroke-width="3"/>
<path d="M290.743 389.105H328.514" stroke="black" stroke-width="3"/>
<path d="M279.584 343.012H317.356" stroke="black" stroke-width="3"/>
<path d="M442.822 287.798L262.765 287.798C246.128 287.798 231.934 275.758 229.221 259.343C225.797 238.632 241.774 219.798 262.765 219.798L442.822 219.798C459.386 219.798 473.539 231.735 476.334 248.061C479.89 268.829 463.893 287.798 442.822 287.798Z" fill="white" stroke="black" stroke-width="3"/>
<path d="M275.025 258.598L268.847 263.034L266.166 258.383L274.551 255.201L278.247 253.799L274.551 252.396L266.166 249.215L268.847 244.564L275.025 249L277.721 250.936L277.393 247.633L276.678 240.44L282.293 240.44L281.679 247.654L281.403 250.9L284.048 249L290.209 244.576L292.806 249.213L284.517 252.399L280.873 253.799L284.517 255.199L292.806 258.384L290.209 263.022L284.048 258.598L281.403 256.698L281.679 259.943L282.293 267.158L276.678 267.158L277.393 259.964L277.721 256.662L275.025 258.598Z" fill="black" stroke="black" stroke-width="3"/>
<path d="M323.986 258.598L317.808 263.034L315.127 258.383L323.512 255.201L327.208 253.799L323.512 252.396L315.127 249.215L317.808 244.564L323.986 249L326.681 250.936L326.354 247.633L325.639 240.44L331.254 240.44L330.64 247.654L330.364 250.9L333.009 249L339.17 244.576L341.767 249.213L333.478 252.399L329.834 253.799L333.478 255.199L341.767 258.384L339.17 263.022L333.009 258.598L330.364 256.698L330.64 259.943L331.254 267.158L325.639 267.158L326.354 259.964L326.681 256.662L323.986 258.598Z" fill="black" stroke="black" stroke-width="3"/>
<path d="M372.947 258.598L366.769 263.034L364.088 258.383L372.473 255.201L376.169 253.799L372.473 252.396L364.088 249.215L366.769 244.564L372.947 249L375.642 250.936L375.315 247.633L374.6 240.44L380.215 240.44L379.601 247.654L379.325 250.9L381.97 249L388.131 244.576L390.728 249.213L382.439 252.399L378.795 253.799L382.439 255.199L390.728 258.384L388.131 263.022L381.97 258.598L379.325 256.698L379.601 259.943L380.215 267.158L374.6 267.158L375.315 259.964L375.642 256.662L372.947 258.598Z" fill="black" stroke="black" stroke-width="3"/>
<path d="M421.909 258.598L415.731 263.034L413.05 258.383L421.435 255.201L425.131 253.799L421.435 252.396L413.05 249.215L415.731 244.564L421.909 249L424.604 250.936L424.276 247.633L423.562 240.44L429.177 240.44L428.563 247.654L428.287 250.9L430.932 249L437.093 244.576L439.69 249.213L431.4 252.399L427.756 253.799L431.4 255.199L439.69 258.384L437.093 263.022L430.932 258.598L428.287 256.698L428.563 259.943L429.177 267.158L423.562 267.158L424.276 259.964L424.604 256.662L421.909 258.598Z" fill="black" stroke="black" stroke-width="3"/>
<path fill-rule="evenodd" clip-rule="evenodd" d="M572.72 290.111C572.721 290.112 572.722 290.111 572.723 290.11C574.846 282.21 574.58 273.857 571.957 266.108C571.082 263.523 569.958 261.043 568.607 258.702C568.602 258.694 568.605 258.684 568.613 258.679V258.679C568.621 258.675 568.624 258.664 568.619 258.656C564.522 251.581 558.421 245.879 551.085 242.269C549.028 241.257 546.901 240.422 544.725 239.768C541.744 238.869 538.655 238.304 535.516 238.095C527.358 237.554 519.223 239.441 512.137 243.52C512.129 243.525 512.126 243.536 512.131 243.544V243.544C512.136 243.553 512.133 243.563 512.124 243.568C509.784 244.921 507.57 246.506 505.519 248.308C499.373 253.707 494.966 260.807 492.855 268.711C492.855 268.712 492.856 268.713 492.857 268.714V268.714C492.859 268.714 492.859 268.716 492.859 268.717L480.72 314.022C479.535 318.444 482.159 322.99 486.582 324.175V324.175C491.004 325.36 495.55 322.736 496.735 318.313L508.874 273.01C508.877 273 508.887 272.994 508.897 272.997V272.997C508.906 272.999 508.916 272.993 508.919 272.984C510.184 268.263 512.818 264.021 516.49 260.796C520.166 257.566 524.718 255.498 529.57 254.855C533.06 254.393 536.592 254.682 539.935 255.686C542.784 256.547 545.47 257.92 547.855 259.753C551.735 262.736 554.643 266.802 556.212 271.438C557.779 276.067 557.94 281.057 556.675 285.778C556.672 285.788 556.678 285.798 556.688 285.801V285.801C556.698 285.803 556.704 285.814 556.701 285.824L544.562 331.126C543.377 335.549 546.002 340.095 550.424 341.28V341.28C554.847 342.465 559.393 339.84 560.578 335.418L572.717 290.113C572.717 290.112 572.718 290.111 572.72 290.111V290.111Z" fill="#2D9CDB"/>
<path d="M571.957 266.108L570.536 266.589L570.536 266.589L571.957 266.108ZM551.085 242.269L551.747 240.923L551.747 240.923L551.085 242.269ZM544.725 239.768L544.292 241.205L544.294 241.205L544.725 239.768ZM535.516 238.095L535.416 239.592L535.416 239.592L535.516 238.095ZM505.519 248.308L504.529 247.181L504.529 247.181L505.519 248.308ZM516.49 260.796L515.5 259.669L515.5 259.669L516.49 260.796ZM529.57 254.855L529.373 253.368L529.373 253.368L529.57 254.855ZM539.935 255.686L540.369 254.25L540.366 254.249L539.935 255.686ZM547.855 259.753L546.94 260.943L547.855 259.753ZM556.212 271.438L557.633 270.957L557.633 270.957L556.212 271.438ZM556.675 285.778L558.123 286.166L556.675 285.778ZM508.919 272.984L510.368 273.372L508.919 272.984ZM492.855 268.711L491.406 268.324L492.855 268.711ZM492.857 268.714L493.244 267.265L492.857 268.714ZM508.874 273.01L507.425 272.622L508.874 273.01ZM508.897 272.997L508.51 274.446L508.897 272.997ZM568.619 258.656L567.321 259.408L568.619 258.656ZM512.137 243.52L512.886 244.82L512.137 243.52ZM496.735 318.313L495.286 317.925L496.735 318.313ZM572.717 290.113L571.268 289.725L572.717 290.113ZM568.607 258.702L567.308 259.451L568.607 258.702ZM568.613 258.679L569.364 259.978L568.613 258.679ZM560.578 335.418L559.129 335.029L560.578 335.418ZM572.723 290.11L574.171 290.499L572.723 290.11ZM570.536 266.589C573.064 274.057 573.321 282.107 571.274 289.72L574.171 290.499C576.372 282.312 576.096 273.657 573.378 265.627L570.536 266.589ZM567.308 259.451C568.609 261.708 569.693 264.097 570.536 266.589L573.378 265.627C572.471 262.948 571.306 260.379 569.906 257.952L567.308 259.451ZM569.917 257.905C565.672 250.573 559.349 244.664 551.747 240.923L550.422 243.615C557.492 247.094 563.373 252.589 567.321 259.408L569.917 257.905ZM551.747 240.923C549.616 239.874 547.411 239.009 545.157 238.332L544.294 241.205C546.39 241.835 548.441 242.639 550.422 243.615L551.747 240.923ZM535.416 239.592C538.442 239.793 541.418 240.337 544.292 241.205L545.159 238.332C542.069 237.4 538.868 236.815 535.615 236.599L535.416 239.592ZM512.886 244.82C519.714 240.889 527.554 239.07 535.416 239.592L535.615 236.599C527.161 236.037 518.731 237.993 511.389 242.22L512.886 244.82ZM511.374 242.269C508.948 243.671 506.654 245.314 504.529 247.181L506.509 249.435C508.486 247.698 510.619 246.171 512.875 244.867L511.374 242.269ZM504.529 247.181C498.16 252.776 493.594 260.133 491.406 268.324L494.305 269.098C496.339 261.481 500.586 254.638 506.509 249.435L504.529 247.181ZM491.41 268.329L479.271 313.634L482.168 314.41L494.308 269.105L491.41 268.329ZM498.184 318.701L510.323 273.398L507.425 272.622L495.286 317.925L498.184 318.701ZM510.368 273.372C511.556 268.937 514.03 264.953 517.48 261.922L515.5 259.669C511.605 263.09 508.811 267.588 507.47 272.596L510.368 273.372ZM517.48 261.922C520.934 258.888 525.21 256.946 529.767 256.342L529.373 253.368C524.227 254.05 519.399 256.243 515.5 259.669L517.48 261.922ZM529.767 256.342C533.045 255.908 536.364 256.18 539.503 257.122L540.366 254.249C536.821 253.185 533.074 252.878 529.373 253.368L529.767 256.342ZM548.769 258.564C546.24 256.62 543.391 255.163 540.369 254.25L539.501 257.121C542.177 257.931 544.7 259.221 546.94 260.943L548.769 258.564ZM557.633 270.957C555.969 266.04 552.884 261.727 548.769 258.564L546.94 260.943C550.585 263.744 553.317 267.564 554.791 271.919L557.633 270.957ZM558.123 286.166C559.466 281.159 559.295 275.867 557.633 270.957L554.791 271.919C556.263 276.268 556.414 280.955 555.226 285.389L558.123 286.166ZM546.011 331.514L558.15 286.212L555.252 285.435L543.113 330.738L546.011 331.514ZM571.268 289.725L559.129 335.029L562.026 335.806L574.166 290.501L571.268 289.725ZM543.113 330.738C541.714 335.961 544.813 341.329 550.036 342.728L550.812 339.831C547.19 338.86 545.04 335.137 546.011 331.514L543.113 330.738ZM556.298 287.249C555.509 287.037 555.04 286.225 555.252 285.435L558.15 286.212C558.367 285.402 557.887 284.57 557.077 284.352L556.298 287.249ZM555.226 285.389C555.009 286.197 555.487 287.031 556.298 287.249L557.077 284.352C557.869 284.565 558.335 285.378 558.123 286.166L555.226 285.389ZM508.51 274.446C509.321 274.663 510.152 274.179 510.368 273.372L507.47 272.596C507.681 271.808 508.491 271.336 509.284 271.548L508.51 274.446ZM492.47 270.163C491.671 269.949 491.196 269.128 491.41 268.329L494.308 269.105C494.523 268.303 494.047 267.479 493.244 267.265L492.47 270.163ZM491.406 268.324C491.192 269.125 491.668 269.949 492.47 270.163L493.244 267.265C494.043 267.478 494.518 268.299 494.305 269.098L491.406 268.324ZM510.831 244.293C510.423 243.584 510.666 242.679 511.374 242.269L512.875 244.867C513.6 244.448 513.849 243.521 513.431 242.795L510.831 244.293ZM510.323 273.398C510.111 274.188 509.299 274.657 508.51 274.446L509.284 271.548C508.474 271.331 507.642 271.812 507.425 272.622L510.323 273.398ZM569.364 259.978C570.09 259.558 570.336 258.629 569.917 257.905L567.321 259.408C566.911 258.7 567.152 257.792 567.862 257.381L569.364 259.978ZM511.389 242.22C510.663 242.638 510.412 243.566 510.831 244.293L513.431 242.795C513.84 243.506 513.595 244.412 512.886 244.82L511.389 242.22ZM486.193 325.624C491.416 327.024 496.784 323.924 498.184 318.701L495.286 317.925C494.315 321.547 490.592 323.697 486.97 322.726L486.193 325.624ZM574.166 290.501C573.952 291.301 573.13 291.775 572.33 291.56L573.109 288.663C572.307 288.447 571.483 288.923 571.268 289.725L574.166 290.501ZM569.906 257.952C570.315 258.661 570.073 259.568 569.364 259.978L567.862 257.381C567.137 257.8 566.889 258.727 567.308 259.451L569.906 257.952ZM479.271 313.634C477.871 318.856 480.971 324.225 486.193 325.624L486.97 322.726C483.348 321.756 481.198 318.033 482.168 314.41L479.271 313.634ZM550.036 342.728C555.259 344.128 560.627 341.028 562.026 335.806L559.129 335.029C558.158 338.652 554.435 340.801 550.812 339.831L550.036 342.728ZM571.274 289.72C571.488 288.923 572.309 288.448 573.109 288.663L572.33 291.56C573.133 291.776 573.956 291.299 574.171 290.499L571.274 289.72Z" fill="black"/>
<path d="M450.061 357.671C445.873 373.13 455.009 389.057 470.468 393.245L529.54 409.249C544.999 413.438 560.926 404.301 565.114 388.842L575.115 351.93C579.303 336.471 570.166 320.544 554.707 316.356L495.636 300.352C480.177 296.163 464.25 305.3 460.061 320.759L450.061 357.671Z" fill="white" stroke="black" stroke-width="3"/>
<mask id="path-26-inside-1_134_14050" fill="white">
<path fill-rule="evenodd" clip-rule="evenodd" d="M501.58 362.573C502.459 360.677 501.999 358.472 500.884 356.706C498.589 353.073 497.76 348.53 498.96 344.053C501.241 335.542 509.989 330.491 518.5 332.772C527.011 335.052 532.062 343.801 529.781 352.312C528.581 356.789 525.592 360.308 521.789 362.307C519.94 363.279 518.439 364.959 518.253 367.039L517.656 373.705C517.378 376.797 514.38 378.892 511.381 378.089L502.007 375.577C499.008 374.773 497.459 371.46 498.765 368.643L501.58 362.573Z"/>
</mask>
<path fill-rule="evenodd" clip-rule="evenodd" d="M501.58 362.573C502.459 360.677 501.999 358.472 500.884 356.706C498.589 353.073 497.76 348.53 498.96 344.053C501.241 335.542 509.989 330.491 518.5 332.772C527.011 335.052 532.062 343.801 529.781 352.312C528.581 356.789 525.592 360.308 521.789 362.307C519.94 363.279 518.439 364.959 518.253 367.039L517.656 373.705C517.378 376.797 514.38 378.892 511.381 378.089L502.007 375.577C499.008 374.773 497.459 371.46 498.765 368.643L501.58 362.573Z" fill="black"/>
<path d="M517.656 373.705L520.644 373.973L517.656 373.705ZM521.789 362.307L520.394 359.651L521.789 362.307ZM498.765 368.643L501.487 369.906L498.765 368.643ZM501.58 362.573L498.859 361.31L501.58 362.573ZM501.858 344.83C500.884 348.465 501.554 352.149 503.42 355.104L498.347 358.308C495.625 353.997 494.637 348.596 496.062 343.277L501.858 344.83ZM517.723 335.67C510.813 333.818 503.709 337.919 501.858 344.83L496.062 343.277C498.772 333.165 509.165 327.165 519.276 329.874L517.723 335.67ZM526.883 351.535C528.735 344.625 524.634 337.521 517.723 335.67L519.276 329.874C529.388 332.583 535.388 342.977 532.679 353.088L526.883 351.535ZM520.394 359.651C523.487 358.026 525.909 355.17 526.883 351.535L532.679 353.088C531.254 358.407 527.698 362.591 523.185 364.962L520.394 359.651ZM514.668 373.437L515.265 366.771L521.241 367.307L520.644 373.973L514.668 373.437ZM502.783 372.679L512.158 375.191L510.605 380.986L501.23 378.474L502.783 372.679ZM504.302 363.835L501.487 369.906L496.043 367.381L498.859 361.31L504.302 363.835ZM520.644 373.973C520.2 378.92 515.403 382.272 510.605 380.986L512.158 375.191C513.357 375.512 514.557 374.674 514.668 373.437L520.644 373.973ZM523.185 364.962C521.902 365.637 521.307 366.568 521.241 367.307L515.265 366.771C515.572 363.349 517.978 360.921 520.394 359.651L523.185 364.962ZM501.23 378.474C496.433 377.189 493.954 371.888 496.043 367.381L501.487 369.906C500.964 371.032 501.584 372.357 502.783 372.679L501.23 378.474ZM503.42 355.104C504.877 357.411 505.748 360.717 504.302 363.835L498.859 361.31C499.171 360.637 499.121 359.533 498.347 358.308L503.42 355.104Z" fill="black" mask="url(#path-26-inside-1_134_14050)"/>
</g>
<defs>
<clipPath id="clip0_134_14050">
<rect width="713" height="594" fill="white" transform="translate(0.916016 0.263672)"/>
</clipPath>
<clipPath id="clip1_134_14050">
<rect x="0.916016" y="0.263672" width="713" height="594" rx="16" fill="white"/>
</clipPath>
</defs>
</svg>
