<svg width="714" height="595" viewBox="0 0 714 595" fill="none" xmlns="http://www.w3.org/2000/svg">
<g clip-path="url(#clip0_134_14004)">
<path d="M102.121 405.42C104.508 384.901 103.4 364.153 108.094 343.733C115.367 312.158 126.38 281.6 127.138 248.374C127.681 224.097 134.889 199.629 135.941 175.278C137.1 147.492 160.507 128.297 189.666 108.732C232.884 79.735 271.784 77.195 319.575 79.006C361.181 80.5827 402.879 79.6447 437.918 93.561C467.544 105.363 490.144 125.111 507.608 152.401C533.521 192.879 565.661 228.557 597.305 264.697C621.317 292.075 642.481 322.204 648.729 359.867C652.795 384.297 647.207 406.32 633.003 426.217C597.156 476.484 548.42 510.399 491.117 530.319C463.885 539.771 433.782 538.99 404.304 535.651C361.8 530.827 319.179 524.894 276.386 525.826C251.931 526.39 227.297 528.105 202.753 529.244C154.991 531.417 131.82 511.319 114.633 467.756C106.963 448.308 105.546 427.519 102.367 407.115" fill="#DAEAFF"/>
<path d="M560.048 267.124C537.747 235.339 507.271 210.926 482.482 181.531C468.256 164.7 454.45 147.189 437.89 133.113C413.171 112.066 382.155 105 350.812 112.263C293.178 125.509 238.86 144.497 209.134 203.345C186.625 247.848 161.486 291.005 146.508 338.83C140.082 359.379 136.186 380.384 140.421 402.142C146.907 435.252 168.696 456.416 197.622 469.075C243.932 489.352 292.495 489.855 339.528 472.373C375.837 458.853 408.464 437.041 440.975 416.079C470.445 397 498.636 375.936 527.568 356.041C540.253 347.287 551.221 336.623 560.14 324.499C573.154 306.825 566.937 287.619 560.536 269.026" fill="#DAEAFF"/>
<path d="M555.891 283.678C538.486 249.162 511.969 220.733 491.769 188.213C480.172 169.588 469.085 150.354 454.793 134.107C433.464 109.822 403.922 98.4061 372.001 101.06C313.319 105.83 257.078 116.735 219.34 170.441C190.772 211.051 159.807 249.958 138.182 294.922C128.9 314.244 122.044 334.378 123.091 356.422C124.725 389.973 143.151 413.953 169.831 430.579C212.541 457.207 260.312 464.678 309.16 454.211C346.872 446.107 382.148 429.304 417.188 413.322C448.962 398.759 479.761 382.057 511.121 366.612C524.876 359.81 537.213 350.879 547.742 340.216C563.101 324.673 559.735 304.859 556.1 285.623" stroke="black" stroke-width="3" stroke-miterlimit="10" stroke-linecap="round" stroke-linejoin="round" stroke-dasharray="8 20"/>
<path d="M85.9746 383.053C88.3615 362.535 87.2531 341.787 91.9479 321.366C99.2209 289.792 110.233 259.234 110.992 226.008C111.535 201.731 118.743 177.262 119.795 152.912C120.953 125.125 144.36 105.93 173.52 86.3656C216.737 57.3688 255.638 54.8288 303.428 56.6398C345.034 58.2164 386.733 57.2785 421.772 71.1948C451.397 82.9967 473.997 102.745 491.461 130.035C517.374 170.513 549.514 206.191 581.159 242.331C605.17 269.709 626.335 299.838 632.582 337.501C636.648 361.931 631.061 383.953 616.856 403.85C581.01 454.118 532.273 488.032 474.971 507.953C447.738 517.405 417.636 516.624 388.157 513.285C345.654 508.461 303.033 502.528 260.24 503.46C235.785 504.024 211.151 505.739 186.607 506.878C138.844 509.051 115.674 488.953 98.4869 445.39C90.8165 425.941 89.3994 405.153 86.2208 384.749" stroke="black" stroke-width="3" stroke-miterlimit="10" stroke-linecap="round" stroke-linejoin="round" stroke-dasharray="8 20"/>
<path d="M531.341 320.836C538.443 334.055 543.55 350.889 542.122 366.153C533.894 366.434 525.564 365.828 517.387 364.215C525.112 368.472 533.37 371.732 541.909 373.988C543.04 374.272 539.245 392.886 538.817 394.645C537.812 399.044 535.806 403.036 535.054 407.442C530.645 406.816 526.933 403.807 522.65 403.184C525.733 406.05 529.203 408.674 532.939 410.8C533.81 411.329 528.982 421.442 528.579 422.316C526.313 426.554 523.672 430.656 520.782 434.624C516.58 440.328 511.028 444.477 506.956 450.057C499.863 445.817 492.769 441.577 485.679 437.21C488.417 443.482 491.538 449.637 495.175 455.427C495.659 456.199 496.144 456.971 495.867 457.849C495.731 458.225 495.341 458.594 495.082 458.839C490.419 462.886 485.148 466.031 479.638 468.663C473.359 471.654 467.758 473.019 461.025 474.101C458.481 469.984 456.064 465.871 453.52 461.755C454.011 466.954 454.502 472.152 454.996 477.225C431.953 482.794 406.313 481.591 383.754 474.021C380.622 472.924 377.367 471.697 375.154 469.36C372.33 466.248 371.696 461.678 371.178 457.49C366.871 420.57 363.661 380.518 383.116 348.798C395.16 329.143 415.277 314.894 437.343 308.033C459.406 301.298 507.644 291.9 531.341 320.836Z" fill="#A7DFFF"/>
<path d="M323.077 306.571C345.107 306.751 360.05 320.188 377.211 335.905C381.773 340.007 387.247 344.36 393.19 343.446C399.274 342.374 403.156 336.476 406.015 331.081C407.791 327.841 409.252 324.319 409.36 320.718C409.498 312.022 397.607 302.467 391.378 298.004C383.278 292.143 374.046 287.54 366.92 280.278C352.37 265.771 372.912 246.407 379.652 232.268C381.412 228.729 387.602 218.365 385.431 214.136C382.724 208.288 376.06 215.382 371.437 215.777C373.838 204.565 375.218 193.857 372.665 182.458C371.705 178.464 370.288 174.345 367.708 170.887C364.986 167.586 361.258 165.088 356.903 164.869C341.619 164.782 348.58 191.525 350.094 200.282C352.348 214.543 355.829 229.338 352.549 243.742C351.576 247.988 349.424 252.596 344.958 253.132C341.389 253.621 337.929 250.509 336.842 246.972C335.756 243.435 336.163 239.818 336.413 236.06C338.622 215.571 338.566 194.752 336.12 174.061C333.706 153.967 332.486 133.809 322.384 115.621C314.438 101.363 301.665 89.3082 286.127 84.4403C277.289 81.6137 263.517 84.5913 271.321 96.1608C281.091 110.921 295.027 122.315 306.386 135.943C317.885 149.414 327.327 166.439 325.259 183.924C324.773 188.893 300.754 168.148 299.984 167.739C297.341 165.932 293.221 164.503 291.099 166.863C288.255 169.71 291.197 174.347 294.028 176.893C301.405 183.242 311.565 188.396 313.865 197.86C306.004 199.326 298.765 187.127 291.959 191.533C287.604 194.161 289.038 201.424 293.238 204.347C297.296 207.427 302.846 207.582 307.831 208.367C312.816 209.151 318.462 211.098 320.351 215.641C323.073 221.788 317.463 228.976 310.938 230.221C304.413 231.466 297.824 228.67 292.099 225.229C276.937 216.147 263.849 200.963 263.81 183.29C263.646 168.918 272.069 155.439 272.802 141.02C273.036 136.963 272.484 132.199 269.636 129.355C266.773 126.211 261.207 125.757 258.692 129.186C257.718 130.586 257.499 132.096 257.138 133.762C256.118 139.958 255.24 145.996 254.221 152.192C247.081 150.324 245.993 141.094 245.313 133.94C243.86 117.84 236.934 100.232 221.931 94.1374C220.862 93.7448 219.635 93.2107 218.456 93.5728C215.343 94.1874 214.511 98.2759 214.827 101.405C216.862 117.175 231.097 128.553 238.398 141.947C245.369 154.759 251.288 170.323 250.728 185.182C250.339 194.79 244.018 194.226 237.129 188.6C230.711 183.398 227.421 175.034 225.358 167.205C222.744 157.457 220.994 147.064 215.173 138.985C209.037 130.622 198.579 125.485 193.748 116.304C190.238 109.45 190.251 101.211 186.899 94.4981C183.531 87.4866 173.827 82.4591 168.42 87.8389C162.856 93.0773 167.09 102.29 171.904 108.326C186.346 126.433 203.979 142.574 213.045 163.813C193.217 162.768 185.029 135.491 166.001 129.76C161.739 128.488 155.497 129.418 154.996 134.088C154.792 135.897 155.626 137.5 156.46 139.104C161.921 148.85 172.096 154.302 181.941 159.172C191.33 163.917 197.749 171.965 205.457 178.896C222.602 194.314 241.304 208.001 261.121 220.132C276.282 229.214 292.308 237.651 302.786 251.625C304.721 254.218 306.421 258.023 304.3 260.382C303.026 261.798 300.935 261.909 299.127 261.705C289.346 260.876 281.45 253.206 274.198 246.401C267.104 239.737 257.793 233.64 249.174 229.304C240.1 224.842 232.587 232.88 223.701 226.311C216.371 220.858 211.038 213.502 205.405 206.161C195.463 193.806 184.357 182.112 172.418 171.661C165.355 165.595 137.956 146.077 131.642 162.59C129.538 168.094 132.119 174.398 136.083 178.532C140.204 182.807 145.725 185.21 150.946 187.63C161.09 192.484 170.951 197.653 180.686 203.278C187.638 207.253 206.149 217.356 199.675 228.035C194.16 237.016 175.305 231.725 167.175 230.958C158.606 230.364 147.709 231.092 144.992 239.175C142.543 246.645 149.511 253.765 156.29 257.3C171.687 265.171 190.288 265.682 206.088 258.553C210.474 256.522 214.828 253.895 219.592 253.342C224.498 252.633 230.128 254.281 232.016 258.825C227.457 260.415 224.299 265.825 225.15 270.573C226.158 275.463 231.003 279.25 235.783 278.997C242.355 278.648 246.976 272.561 252.477 268.974C260.872 263.435 272.287 264.028 281.754 267.42C288.014 269.635 294.541 274.082 295.346 280.78C295.882 285.245 293.871 289.696 290.744 292.858C282.099 302.154 267.335 303.387 255.006 299.697C242.834 296.149 232.249 288.621 220.705 282.792C209.46 276.948 196.345 272.551 184.082 275.748C182.604 276.126 180.984 276.661 179.695 277.778C175.829 281.129 177.372 287.638 181.289 290.875C185.206 294.113 190.473 294.582 195.458 295.366C209.799 297.452 223.638 301.361 236.958 306.796C240.937 308.382 245.781 312.17 243.896 316.164C243.095 318.004 240.894 318.87 238.819 319.28C224.323 322.745 210.089 314.213 195.669 310.634C193.09 310.022 190.071 309.583 187.744 310.905C182.808 313.863 184.714 321.551 188.678 325.685C194.53 331.516 203.336 333.745 211.434 333.915C218.636 334.132 225.569 332.116 232.597 331.893C244.406 331.416 238.574 334.422 241.423 342.959C244.446 351.936 251.142 345.439 256.879 340.641C277.548 323.666 294.444 306.143 323.077 306.571Z" fill="#2D9CDB"/>
<path d="M163.558 218.185C162.384 210.327 168.47 203.264 176.415 203.264H478.217C484.655 203.264 490.123 207.975 491.075 214.342L516.759 386.2C517.933 394.058 511.847 401.122 503.902 401.122H202.1C195.662 401.122 190.194 396.41 189.242 390.043L163.558 218.185Z" fill="white" stroke="black" stroke-width="3"/>
<path d="M334.16 255.09H464.241" stroke="black" stroke-width="3"/>
<path d="M341.494 278.697H471.575" stroke="black" stroke-width="3"/>
<path d="M216.078 348.429H478.949" stroke="black" stroke-width="3"/>
<path d="M221.324 372.036H486.452" stroke="black" stroke-width="3" stroke-dasharray="6 6"/>
<path d="M346.818 302.193H409.026" stroke="black" stroke-width="3"/>
<path d="M199.141 235.737C198.872 233.924 200.276 232.297 202.108 232.297H290.051C291.538 232.297 292.8 233.386 293.018 234.857L304.77 314.131C305.039 315.943 303.634 317.571 301.802 317.571H213.86C212.373 317.571 211.111 316.481 210.893 315.01L199.141 235.737Z" fill="white" stroke="black" stroke-width="3"/>
<mask id="mask0_134_14004" style="mask-type:alpha" maskUnits="userSpaceOnUse" x="197" y="230" width="110" height="90">
<path d="M199.14 235.737C198.872 233.924 200.276 232.297 202.108 232.297H290.05C291.537 232.297 292.8 233.386 293.018 234.857L304.769 314.131C305.038 315.943 303.634 317.571 301.802 317.571H213.86C212.373 317.571 211.11 316.481 210.892 315.01L199.14 235.737Z" fill="white" stroke="black" stroke-width="3"/>
</mask>
<g mask="url(#mask0_134_14004)">
<path fill-rule="evenodd" clip-rule="evenodd" d="M217.066 303.38C217.758 303.091 218.175 302.372 218.063 301.631C217.037 292.618 215.908 271.018 226.281 258.554C231.239 252.6 238.126 249.519 246.747 249.382C280.316 248.848 285.474 248.766 285.696 262.735C285.722 264.36 286.007 266.385 286.313 268.533L286.314 268.54C287.233 275.102 288.377 283.272 283.001 287.818C280.247 290.146 276.27 291.146 270.844 290.822C269.886 290.764 269.371 292.052 270.143 292.623C270.495 292.884 270.615 293.356 270.43 293.754L269.749 295.218C269.172 296.458 267.808 297.12 266.465 296.86C261.833 295.963 257.295 295.548 254.474 295.705C253.872 295.739 253.315 295.903 252.828 296.172C251.283 297.025 252.466 298.929 254.205 299.23C285.584 304.658 309.45 332.014 309.45 364.943C309.45 401.776 279.591 431.635 242.758 431.635C205.925 431.635 176.067 401.776 176.067 364.943C176.067 337.216 192.987 313.441 217.066 303.38Z" fill="black"/>
</g>
<path d="M199.141 235.737C198.872 233.924 200.276 232.297 202.108 232.297H290.051C291.538 232.297 292.8 233.386 293.018 234.857L304.77 314.131C305.039 315.943 303.634 317.571 301.802 317.571H213.86C212.373 317.571 211.111 316.481 210.893 315.01L199.141 235.737Z" stroke="black" stroke-width="3"/>
<path d="M540.711 328.236L443.242 328.236C434.737 328.236 427.478 322.089 426.075 313.701C424.3 303.089 432.483 293.424 443.242 293.424L540.711 293.424C549.178 293.424 556.416 299.517 557.861 307.859C559.705 318.501 551.512 328.236 540.711 328.236Z" fill="#2F80ED" stroke="black" stroke-width="3"/>
<path d="M528.974 423.208L488.195 310.831L590.694 372.631L561.935 386.053L587.154 417.19L572.14 429.939L547.061 398.246L528.974 423.208Z" fill="white" stroke="black" stroke-width="3"/>
<path d="M426.413 188.816C425.249 180.963 431.334 173.91 439.272 173.91H491.852C498.296 173.91 503.767 178.63 504.712 185.003L511.462 230.54C512.627 238.393 506.542 245.447 498.603 245.447H446.023C439.58 245.447 434.108 240.727 433.163 234.353L426.413 188.816Z" fill="white" stroke="black" stroke-width="3"/>
<path d="M492.817 228.262L445.056 191.096" stroke="black" stroke-width="3" stroke-linejoin="round"/>
<path d="M450.861 229.674L487.775 189.518" stroke="black" stroke-width="3" stroke-linejoin="round"/>
</g>
<defs>
<clipPath id="clip0_134_14004">
<rect width="713" height="594" fill="white" transform="translate(0.046875 0.263672)"/>
</clipPath>
</defs>
</svg>
