<svg width="793" height="314" viewBox="0 0 793 314" fill="none" xmlns="http://www.w3.org/2000/svg">
<path fill-rule="evenodd" clip-rule="evenodd" d="M255.161 70L184 86.781V131.127C184 181.503 210.025 223.068 253.614 242.309L255.179 243L256.743 242.309C300.736 222.889 327 181.327 327 131.067L326.291 86.7699L255.161 70Z" fill="#B8B8B8" fill-opacity="0.4"/>
<g opacity="0.9">
<path d="M256.34 206.44C253.34 206.44 250.7 205.66 248.42 204.1C246.26 202.54 244.46 200.14 243.02 196.9L214.4 130.48C213.32 127.84 212.9 125.38 213.14 123.1C213.5 120.82 214.58 119.02 216.38 117.7C218.3 116.26 220.88 115.54 224.12 115.54C226.88 115.54 229.1 116.2 230.78 117.52C232.46 118.72 233.96 121.06 235.28 124.54L259.58 185.2H254.18L279.2 124.36C280.52 121 282.02 118.72 283.7 117.52C285.5 116.2 287.9 115.54 290.9 115.54C293.54 115.54 295.64 116.26 297.2 117.7C298.76 119.02 299.72 120.82 300.08 123.1C300.44 125.26 300.02 127.66 298.82 130.3L269.66 196.9C268.34 200.14 266.54 202.54 264.26 204.1C262.1 205.66 259.46 206.44 256.34 206.44ZM346.084 206.8C340.924 206.8 335.464 206.26 329.704 205.18C323.944 204.1 318.784 202.24 314.224 199.6C312.304 198.4 310.924 197.02 310.084 195.46C309.364 193.78 309.064 192.16 309.184 190.6C309.424 188.92 310.024 187.48 310.984 186.28C312.064 185.08 313.384 184.3 314.944 183.94C316.624 183.58 318.424 183.88 320.344 184.84C325.144 187.12 329.644 188.74 333.844 189.7C338.044 190.54 342.184 190.96 346.264 190.96C352.024 190.96 356.284 190 359.044 188.08C361.924 186.04 363.364 183.4 363.364 180.16C363.364 177.4 362.404 175.3 360.484 173.86C358.684 172.3 355.924 171.16 352.204 170.44L334.204 167.02C326.764 165.58 321.064 162.88 317.104 158.92C313.264 154.84 311.344 149.62 311.344 143.26C311.344 137.5 312.904 132.52 316.024 128.32C319.264 124.12 323.704 120.88 329.344 118.6C334.984 116.32 341.464 115.18 348.784 115.18C354.064 115.18 358.984 115.78 363.544 116.98C368.224 118.06 372.724 119.8 377.044 122.2C378.844 123.16 380.044 124.42 380.644 125.98C381.364 127.54 381.544 129.16 381.184 130.84C380.824 132.4 380.104 133.84 379.024 135.16C377.944 136.36 376.564 137.14 374.884 137.5C373.324 137.74 371.524 137.38 369.484 136.42C365.764 134.5 362.164 133.12 358.684 132.28C355.324 131.44 352.084 131.02 348.964 131.02C343.084 131.02 338.704 132.04 335.824 134.08C333.064 136.12 331.684 138.82 331.684 142.18C331.684 144.7 332.524 146.8 334.204 148.48C335.884 150.16 338.464 151.3 341.944 151.9L359.944 155.32C367.744 156.76 373.624 159.4 377.584 163.24C381.664 167.08 383.704 172.24 383.704 178.72C383.704 187.48 380.284 194.38 373.444 199.42C366.604 204.34 357.484 206.8 346.084 206.8ZM430.735 206.8C424.375 206.8 418.675 205.6 413.635 203.2C408.715 200.68 404.815 197.32 401.935 193.12C399.175 188.92 397.795 184.18 397.795 178.9C397.795 172.42 399.475 167.32 402.835 163.6C406.195 159.76 411.655 157 419.215 155.32C426.775 153.64 436.915 152.8 449.635 152.8H458.635V165.76H449.815C442.375 165.76 436.435 166.12 431.995 166.84C427.555 167.56 424.375 168.82 422.455 170.62C420.655 172.3 419.755 174.7 419.755 177.82C419.755 181.78 421.135 185.02 423.895 187.54C426.655 190.06 430.495 191.32 435.415 191.32C439.375 191.32 442.855 190.42 445.855 188.62C448.975 186.7 451.435 184.12 453.235 180.88C455.035 177.64 455.935 173.92 455.935 169.72V149.02C455.935 143.02 454.615 138.7 451.975 136.06C449.335 133.42 444.895 132.1 438.655 132.1C435.175 132.1 431.395 132.52 427.315 133.36C423.355 134.2 419.155 135.64 414.715 137.68C412.435 138.76 410.395 139.06 408.595 138.58C406.915 138.1 405.595 137.14 404.635 135.7C403.675 134.14 403.195 132.46 403.195 130.66C403.195 128.86 403.675 127.12 404.635 125.44C405.595 123.64 407.215 122.32 409.495 121.48C415.015 119.2 420.295 117.58 425.335 116.62C430.495 115.66 435.175 115.18 439.375 115.18C448.015 115.18 455.095 116.5 460.615 119.14C466.255 121.78 470.455 125.8 473.215 131.2C475.975 136.48 477.355 143.32 477.355 151.72V194.92C477.355 198.64 476.455 201.52 474.655 203.56C472.855 205.48 470.275 206.44 466.915 206.44C463.555 206.44 460.915 205.48 458.995 203.56C457.195 201.52 456.295 198.64 456.295 194.92V186.28H457.735C456.895 190.48 455.215 194.14 452.695 197.26C450.295 200.26 447.235 202.6 443.515 204.28C439.795 205.96 435.535 206.8 430.735 206.8ZM540.512 206.8C532.712 206.8 526.172 205.48 520.892 202.84C515.732 200.2 511.892 196.36 509.372 191.32C506.852 186.16 505.592 179.8 505.592 172.24V133.9H496.232C493.352 133.9 491.132 133.18 489.572 131.74C488.012 130.18 487.232 128.08 487.232 125.44C487.232 122.68 488.012 120.58 489.572 119.14C491.132 117.7 493.352 116.98 496.232 116.98H505.592V100.6C505.592 96.88 506.552 94.06 508.472 92.14C510.512 90.22 513.332 89.26 516.932 89.26C520.532 89.26 523.292 90.22 525.212 92.14C527.132 94.06 528.092 96.88 528.092 100.6V116.98H547.172C550.052 116.98 552.272 117.7 553.832 119.14C555.392 120.58 556.172 122.68 556.172 125.44C556.172 128.08 555.392 130.18 553.832 131.74C552.272 133.18 550.052 133.9 547.172 133.9H528.092V170.98C528.092 176.74 529.352 181.06 531.872 183.94C534.392 186.82 538.472 188.26 544.112 188.26C546.152 188.26 547.952 188.08 549.512 187.72C551.072 187.36 552.452 187.12 553.652 187C555.092 186.88 556.292 187.36 557.252 188.44C558.212 189.4 558.692 191.44 558.692 194.56C558.692 196.96 558.272 199.12 557.432 201.04C556.712 202.84 555.332 204.1 553.292 204.82C551.732 205.3 549.692 205.72 547.172 206.08C544.652 206.56 542.432 206.8 540.512 206.8Z" fill="black"/>
<path d="M580.074 205.9C575.994 205.9 572.694 204.64 570.174 202.12C567.774 199.6 566.574 196.36 566.574 192.4C566.574 188.56 567.774 185.44 570.174 183.04C572.694 180.52 575.994 179.26 580.074 179.26C584.274 179.26 587.514 180.52 589.794 183.04C592.194 185.44 593.394 188.56 593.394 192.4C593.394 196.36 592.194 199.6 589.794 202.12C587.514 204.64 584.274 205.9 580.074 205.9Z" fill="#1C8FDF"/>
</g>
</svg>
